<svg width="24" height="24" viewBox="0 0 24 24" fill="none" xmlns="http://www.w3.org/2000/svg">
  <path d="M12 5V21" stroke="#282521" stroke-width="1.8" stroke-linecap="round" stroke-linejoin="round"/>
  <path d="M20 19C21.1 19 22 18.1 22 17V5C22 3.9 21.1 3 20 3H16C14.54 3 13.19 3.73 12 5C10.81 3.73 9.46 3 8 3H4C2.9 3 2 3.9 2 5V17C2 18.1 2.9 19 4 19H8C9.46 19 10.81 19.73 12 21C13.19 19.73 14.54 19 16 19H20Z" stroke="#282521" stroke-width="1.8" stroke-linecap="round" stroke-linejoin="round"/>
</svg>
