<svg width="24" height="24" viewBox="0 0 24 24" fill="none" xmlns="http://www.w3.org/2000/svg">
<path d="M10.2236 1.89903C11.1801 1.08476 12.5686 1.03422 13.5791 1.74668L13.7764 1.89903L13.7783 1.90098L20.7734 7.89707C21.3923 8.41974 21.75 9.19002 21.75 10.0006V19.0006C21.7497 20.5145 20.514 21.7506 19 21.7506H5C3.486 21.7506 2.25035 20.5145 2.25 19.0006V10.0006C2.25 9.19002 2.60767 8.41974 3.22656 7.89707L10.2217 1.90098L10.2236 1.89903ZM10 12.9996C9.45018 12.9996 9.00029 13.3596 9 13.7994V20.1998H15V13.7994C14.9997 13.3596 14.5498 12.9996 14 12.9996H10Z" fill="#282521"/>
</svg>
