<svg width="24" height="24" viewBox="0 0 24 24" fill="none" xmlns="http://www.w3.org/2000/svg">
<path d="M8 2.25C9.49122 2.25 10.8364 2.8959 12 3.94922C13.1636 2.8959 14.5088 2.25 16 2.25H20C21.5142 2.25 22.75 3.48579 22.75 5V17C22.75 18.5142 21.5142 19.75 20 19.75H16C14.8109 19.75 13.6453 20.3404 12.5469 21.5127C12.4051 21.6639 12.2073 21.75 12 21.75C11.7927 21.75 11.5949 21.6639 11.4531 21.5127C10.3547 20.3404 9.1891 19.75 8 19.75H4C2.48579 19.75 1.25 18.5142 1.25 17V5C1.25 3.48579 2.48579 2.25 4 2.25H8ZM12 6.34961C11.641 6.34961 11.3496 6.64101 11.3496 7V18C11.3496 18.359 11.641 18.6504 12 18.6504C12.359 18.6504 12.6504 18.359 12.6504 18V7C12.6504 6.64101 12.359 6.34961 12 6.34961Z" fill="#282521"/>
</svg>
